<?xml version="1.0" encoding="UTF-8"?> <svg xmlns="http://www.w3.org/2000/svg" width="214" height="71" viewBox="0 0 214 71" fill="none"><g clip-path="url(#clip0_1225_6394)"><path d="M57.8974 0H38.5952L0 37.275V52.3625H38.5952V71H57.8974V37.275H19.2931L57.8974 0Z" fill="black"></path><path d="M66.168 18.6375L85.461 0H66.168V18.6375Z" fill="black"></path><path d="M104.763 18.6375V0H85.461V18.6375L66.168 37.275V55.9125H85.461V37.275L104.763 18.6375Z" fill="black"></path><path d="M104.763 37.2754L85.4609 55.9129H104.763V37.2754Z" fill="black"></path><path d="M124.21 37.8057H122.734V56.5072H124.21V37.8057Z" fill="black"></path><path d="M133.568 41.5938L134.816 48.1722L137.603 41.5938H139.097L140.327 48.1722L143.105 41.5938H145.419L141.064 51.5209H139.197L137.94 45.4914L135.271 51.5209H133.404L131.363 41.5938H133.568Z" fill="black"></path><path d="M148.578 44.4395C148.031 45.0525 147.712 45.8851 147.712 46.7177C147.712 47.6235 148.04 48.3463 148.477 48.8038C149.115 49.49 149.88 49.6364 150.545 49.6364C151.21 49.6364 151.957 49.5357 152.649 48.7855C153.159 48.2365 153.524 47.3673 153.524 46.3426C153.524 45.7021 153.396 44.8969 152.777 44.2565C152.157 43.616 151.401 43.4788 150.828 43.4788C149.889 43.4788 149.142 43.8081 148.578 44.4303M154.435 42.6553C155.236 43.4788 155.765 44.7231 155.765 46.187C155.765 47.6509 155.3 49.1331 154.307 50.2036C153.123 51.4846 151.638 51.7408 150.399 51.7408C149.161 51.7408 147.922 51.5212 146.81 50.3226C146.164 49.6272 145.48 48.4744 145.48 46.8549C145.48 45.1165 146.145 43.7532 147.038 42.8657C148.241 41.658 149.698 41.3652 150.909 41.3652C152.722 41.3652 153.806 42.0331 154.435 42.6645" fill="black"></path><path d="M160.12 41.5938L159.182 49.5904H162.124L161.897 51.5209H156.777L157.943 41.5938H160.12Z" fill="black"></path><path d="M169.285 43.5243H166.234L166.006 45.4457H168.839L168.611 47.3854H165.778L165.286 51.5301H163.109L164.284 41.5938H169.513L169.285 43.5243Z" fill="black"></path><path d="M175.249 44.018C174.657 43.4507 174.092 43.3043 173.664 43.3043C173.4 43.3043 173.017 43.3501 172.771 43.5605C172.571 43.7252 172.443 44.0088 172.443 44.2742C172.443 44.5761 172.571 44.7774 172.771 44.9421C172.972 45.1251 173.227 45.244 173.691 45.4636L174.238 45.7289C174.693 45.9577 175.112 46.2047 175.486 46.6805C175.823 47.1288 175.969 47.5863 175.969 48.2267C175.969 49.2698 175.577 50.1939 175.021 50.7703C174.256 51.5571 173.281 51.7401 172.325 51.7401C171.633 51.7401 171.077 51.6486 170.448 51.2918C169.984 51.0265 169.528 50.6239 169.191 50.2396L170.412 48.6019C170.612 48.8855 170.922 49.1966 171.205 49.3887C171.505 49.5809 171.897 49.7181 172.307 49.7181C172.635 49.7181 173.081 49.6175 173.354 49.407C173.609 49.1966 173.746 48.858 173.746 48.4829C173.746 48.1078 173.591 47.9156 173.473 47.7967C173.4 47.7235 173.218 47.5588 172.726 47.3484L172.17 47.1105C172.015 47.0464 171.296 46.7262 170.84 46.2321C170.385 45.7381 170.221 45.1708 170.221 44.5486C170.221 43.5239 170.612 42.7736 171.068 42.2979C171.833 41.511 172.808 41.3555 173.609 41.3555C174.411 41.3555 175.349 41.5202 176.342 42.3345L175.249 43.9997V44.018Z" fill="black"></path><path d="M180.131 45.6287H180.568C180.933 45.6287 181.443 45.5829 181.771 45.2535C181.98 45.0431 182.099 44.6863 182.099 44.3569C182.099 43.9543 181.935 43.7347 181.798 43.6158C181.534 43.387 181.151 43.3779 180.842 43.3779H180.386L180.131 45.6287ZM179.648 49.7368H180.441C180.851 49.7368 181.516 49.691 181.853 49.3617C181.98 49.2427 182.19 48.9591 182.19 48.4101C182.19 48.1997 182.144 47.8886 181.935 47.669C181.625 47.3396 180.969 47.3213 180.778 47.3213H179.931L179.648 49.7368ZM178.419 41.5938H181.434C182.071 41.5938 182.918 41.6669 183.511 42.28C183.848 42.6276 184.121 43.2041 184.121 43.9818C184.121 44.6222 183.966 45.1255 183.684 45.528C183.374 45.9764 183.01 46.1868 182.691 46.2874C183.174 46.4064 183.529 46.6443 183.766 46.8822C184.203 47.3305 184.376 47.8154 184.376 48.465C184.376 49.5172 183.984 50.2034 183.611 50.5968C182.864 51.3837 181.762 51.5301 180.769 51.5301H177.262L178.419 41.5938Z" fill="black"></path><path d="M188.976 41.5938L188.357 47.0194C188.32 47.3305 188.284 47.4677 188.284 47.8794C188.284 48.2912 188.338 48.7852 188.694 49.1604C188.949 49.4166 189.359 49.6087 189.942 49.6087C190.652 49.6087 191.089 49.3708 191.326 49.1146C191.791 48.6206 191.891 47.788 191.964 47.2207L192.611 41.5938H194.788L194.114 47.3762C193.968 48.5657 193.849 49.7734 192.993 50.6792C192.046 51.7039 190.68 51.7497 189.896 51.7497C188.958 51.7497 187.774 51.6307 186.908 50.7249C186.316 50.1119 186.07 49.3525 186.07 48.4284C186.07 47.9801 186.143 47.2664 186.189 46.8639L186.799 41.5938H188.976Z" fill="black"></path><path d="M198.485 46.1044H199.023C199.378 46.1044 199.915 46.0587 200.298 45.7476C200.681 45.4365 200.781 45.0065 200.781 44.5856C200.781 44.2745 200.708 43.872 200.325 43.6158C200.043 43.4236 199.633 43.3779 199.141 43.3779H198.813L198.485 46.1044ZM199.797 41.5938C200.699 41.5938 201.591 41.6852 202.302 42.4904C202.63 42.8472 202.976 43.4877 202.976 44.5124C202.976 45.4548 202.666 46.1959 202.202 46.69C201.792 47.1109 201.227 47.3945 200.699 47.4952L203.131 51.5301H200.589L198.312 47.6141L197.857 51.5301H195.68L196.837 41.5938H199.788H199.797Z" fill="black"></path><path d="M209.591 46.1047H213.999C213.927 48.6025 213.007 49.8377 212.542 50.35C211.467 51.5303 210.237 51.7499 209.062 51.7499C207.887 51.7499 206.603 51.448 205.601 50.35C204.626 49.2795 204.398 47.9712 204.398 46.9098C204.398 45.0342 205.045 43.7533 205.81 42.9023C206.995 41.594 208.343 41.3652 209.673 41.3652C210.52 41.3652 211.485 41.5116 212.332 42.0972C212.952 42.5272 213.508 43.2317 213.863 43.8813L211.859 44.9976C211.686 44.595 211.376 44.1467 210.984 43.863C210.492 43.5062 209.955 43.4513 209.545 43.4513C208.78 43.4513 208.142 43.6435 207.568 44.2839C206.949 44.9701 206.648 45.9491 206.648 46.8092C206.648 47.5686 206.913 48.4195 207.423 48.941C208.015 49.5723 208.78 49.6547 209.363 49.6547C209.8 49.6547 210.392 49.5632 210.866 49.2063C211.203 48.9502 211.531 48.4927 211.677 47.9254H209.399L209.609 46.0955L209.591 46.1047Z" fill="black"></path></g><defs><clipPath id="clip0_1225_6394"><rect width="214" height="71" fill="black"></rect></clipPath></defs></svg> 